<?xml version="1.0" standalone="no"?>
<!DOCTYPE svg PUBLIC "-//W3C//DTD SVG 20010904//EN"
 "http://www.w3.org/TR/2001/REC-SVG-20010904/DTD/svg10.dtd">
<svg version="1.0" xmlns="http://www.w3.org/2000/svg"
 width="2000.000000pt" height="1831.000000pt" viewBox="0 0 2000.000000 1831.000000"
 preserveAspectRatio="xMidYMid meet">
<metadata>
Created by potrace 1.16, written by Peter Selinger 2001-2019
</metadata>
<g transform="translate(0.000000,1831.000000) scale(0.100000,-0.100000)"
fill="#000000" stroke="none">
<path d="M9890 18282 c0 -25 -6 -30 -52 -45 -29 -9 -81 -33 -115 -54 -42 -24
-1173 -1036 -3341 -2987 -4659 -4194 -6086 -5486 -6174 -5586 -26 -30 -71 -98
-99 -152 -47 -89 -54 -98 -80 -98 l-29 0 0 -190 0 -190 28 0 c23 0 30 -6 40
-34 38 -106 130 -207 477 -527 1147 -1056 2721 -2476 8999 -8121 190 -171 283
-217 456 -226 111 -5 214 18 315 71 91 48 221 182 272 282 85 164 77 -23 83
1990 l5 1790 4380 5 c4225 5 4382 6 4435 23 202 68 379 240 437 425 15 46 20
52 45 52 l28 0 0 4470 0 4470 -30 0 c-21 0 -30 5 -30 17 0 9 -19 55 -41 102
-34 70 -58 102 -133 177 -97 97 -177 145 -301 181 -57 17 -291 18 -4417 23
-2396 3 -4360 9 -4365 13 -4 5 -10 808 -13 1785 -6 1982 1 1806 -76 1962 -69
139 -251 295 -386 331 -43 12 -48 16 -48 41 l0 28 -135 0 -135 0 0 -28z"/>
</g>
</svg>
