<?xml version="1.0" standalone="no"?>
<!DOCTYPE svg PUBLIC "-//W3C//DTD SVG 20010904//EN"
 "http://www.w3.org/TR/2001/REC-SVG-20010904/DTD/svg10.dtd">
<svg version="1.0" xmlns="http://www.w3.org/2000/svg"
 width="630.000000pt" height="630.000000pt" viewBox="0 0 630.000000 630.000000"
 preserveAspectRatio="xMidYMid meet">
<metadata>
Created by potrace 1.16, written by Peter Selinger 2001-2019
</metadata>
<g transform="translate(0.000000,630.000000) scale(0.100000,-0.100000)"
fill="#000000" stroke="none">
<path d="M3005 4691 c-160 -48 -296 -182 -346 -341 -24 -77 -28 -201 -9 -281
30 -127 56 -161 388 -498 78 -79 142 -149 142 -154 0 -6 -360 -8 -977 -6 -930
4 -981 3 -1038 -15 -162 -50 -281 -159 -344 -318 -27 -67 -31 -88 -31 -175 0
-55 6 -118 14 -144 55 -180 183 -307 366 -364 50 -15 151 -17 1033 -22 537 -3
977 -8 977 -11 0 -3 -103 -110 -229 -236 -184 -187 -234 -243 -260 -293 -124
-247 -55 -526 169 -680 166 -113 401 -113 574 2 30 20 434 414 905 883 l852
847 -863 866 c-926 930 -902 909 -1039 944 -76 20 -209 18 -284 -4z"/>
</g>
</svg>
