<?xml version="1.0" standalone="no"?>
<!DOCTYPE svg PUBLIC "-//W3C//DTD SVG 20010904//EN"
 "http://www.w3.org/TR/2001/REC-SVG-20010904/DTD/svg10.dtd">
<svg version="1.0" xmlns="http://www.w3.org/2000/svg"
 width="904.000000pt" height="904.000000pt" viewBox="0 0 904.000000 904.000000"
 preserveAspectRatio="xMidYMid meet">

<g transform="translate(0.000000,904.000000) scale(0.100000,-0.100000)"
fill="#000000" stroke="none">
<path d="M4054 7996 c-27 -27 -34 -42 -34 -74 0 -81 77 -130 153 -99 59 25 82
89 52 147 -21 40 -53 60 -98 60 -31 0 -46 -7 -73 -34z m126 -26 c26 -26 25
-60 -1 -94 -40 -50 -119 -21 -119 44 0 38 32 70 70 70 17 0 39 -9 50 -20z"/>
<path d="M4845 7980 c-30 -30 -36 -43 -27 -52 8 -8 15 -8 27 2 8 7 18 10 21 8
11 -11 6 -1110 -5 -1121 -17 -17 -97 8 -158 48 -181 119 -293 435 -328 923 -7
88 -16 115 -36 95 -12 -12 7 -270 32 -412 68 -400 224 -646 441 -695 105 -24
51 -31 -277 -36 -284 -4 -330 -7 -330 -20 0 -13 46 -16 330 -20 330 -5 330 -5
333 -27 2 -12 10 -27 17 -33 16 -13 20 -7 27 35 3 19 12 20 288 23 157 1 291
0 298 -3 10 -4 10 -8 0 -25 -9 -14 -10 -22 -1 -31 8 -8 22 -1 52 26 23 21 41
43 41 49 0 7 -18 30 -40 51 -30 30 -43 36 -52 27 -8 -8 -8 -15 2 -26 10 -13
10 -17 -2 -21 -26 -10 -583 0 -581 10 1 6 21 13 45 17 68 12 158 62 215 120
129 131 215 362 258 695 17 129 17 288 0 288 -5 0 -13 -34 -18 -75 -23 -228
-42 -357 -69 -465 -32 -129 -89 -271 -135 -338 -71 -105 -177 -180 -258 -181
l-40 -1 -3 554 c-1 347 1 558 7 564 7 7 16 5 26 -3 12 -10 19 -10 27 -2 9 9 3
22 -27 52 -21 22 -44 40 -50 40 -6 0 -29 -18 -50 -40z"/>
<path d="M3455 7874 c-232 -34 -431 -178 -536 -389 -54 -110 -72 -202 -66
-340 6 -130 36 -230 98 -326 132 -203 321 -315 555 -326 182 -9 334 39 475
151 188 148 286 400 249 641 -40 264 -239 491 -498 566 -66 19 -218 32 -277
23z m294 -69 c213 -72 371 -240 431 -458 15 -55 4 -81 -25 -57 -12 10 -19 10
-27 2 -9 -9 -1 -21 30 -50 49 -45 52 -68 15 -105 -159 -152 -828 -186 -1153
-60 -135 53 -160 96 -94 164 40 41 39 71 -1 45 -33 -22 -37 -9 -19 59 57 219
230 401 439 463 99 30 109 31 220 28 78 -3 119 -10 184 -31z m-667 -789 c104
-30 314 -56 454 -56 222 0 469 42 587 99 70 34 76 28 52 -56 -31 -109 -83
-192 -175 -284 -133 -133 -267 -189 -453 -189 -118 0 -181 13 -273 55 -143 65
-257 175 -320 310 -33 70 -65 174 -58 187 3 4 26 -4 52 -17 26 -13 86 -35 134
-49z"/>
<path d="M3325 7390 c-13 -21 9 -30 74 -30 45 0 72 5 80 13 6 8 8 17 4 20 -10
11 -151 8 -158 -3z"/>
<path d="M3595 7390 c-10 -16 44 -31 104 -28 42 2 56 7 56 18 0 12 -16 16 -77
18 -45 2 -79 -1 -83 -8z"/>
<path d="M3130 7363 c-71 -16 -90 -27 -74 -43 7 -7 32 -6 78 4 71 15 93 27 82
45 -8 13 -4 13 -86 -6z"/>
<path d="M3865 7370 c-12 -19 5 -28 77 -45 49 -11 74 -13 82 -5 16 16 -3 27
-77 44 -81 19 -74 18 -82 6z"/>
<path d="M5648 7791 c-130 -82 -110 -275 34 -336 71 -29 154 -9 210 51 65 70
65 183 -1 258 -54 62 -168 75 -243 27z m142 -11 c20 -5 51 -26 70 -45 29 -30
34 -43 38 -92 3 -48 0 -64 -20 -92 -47 -69 -131 -89 -202 -48 -113 64 -93 240
30 277 39 11 44 11 84 0z"/>
<path d="M6295 7506 c-37 -16 -83 -68 -91 -102 -10 -40 2 -100 26 -135 78
-108 259 -57 277 78 15 109 -113 205 -212 159z m111 -42 c109 -52 69 -214 -52
-214 -39 0 -51 5 -80 34 -39 39 -45 86 -19 136 29 56 90 73 151 44z"/>
<path d="M2482 7393 c-13 -2 -43 -23 -67 -46 -42 -41 -65 -92 -65 -147 0 -40
41 -111 83 -144 35 -28 46 -31 106 -31 57 0 74 4 109 28 110 72 110 242 1 314
-40 26 -113 38 -167 26z m128 -48 c51 -26 84 -80 84 -136 0 -155 -217 -207
-286 -69 -65 130 74 271 202 205z"/>
<path d="M5860 7195 c-34 -35 -41 -48 -32 -57 9 -9 16 -7 32 7 16 14 21 15 25
4 3 -8 4 -127 3 -264 l-3 -250 -30 -5 c-39 -7 -39 -33 0 -40 20 -3 31 -12 35
-28 7 -30 19 -30 34 0 l12 23 414 3 c228 1 421 0 429 -3 11 -4 11 -8 1 -21
-10 -11 -10 -18 -1 -27 9 -9 21 -2 53 31 l42 42 -44 45 c-30 30 -47 42 -54 35
-7 -7 -7 -17 2 -30 10 -17 10 -21 0 -25 -7 -3 -202 -4 -433 -3 l-420 3 -3 250
c-1 137 0 256 3 263 4 10 9 10 26 2 15 -9 24 -9 32 -1 8 8 0 22 -28 51 -21 22
-42 40 -45 40 -3 0 -26 -20 -50 -45z"/>
<path d="M6783 7108 l-61 -61 -28 19 c-15 10 -33 23 -40 29 -11 7 -54 -30
-179 -155 l-165 -165 -64 64 c-53 53 -67 61 -82 53 -27 -15 -204 -197 -204
-210 0 -34 32 -15 121 74 l99 99 60 -63 c33 -34 66 -62 72 -62 7 0 86 73 175
162 l162 162 29 -27 c15 -15 32 -27 38 -27 17 0 157 148 150 159 -12 18 -18
14 -83 -51z"/>
<path d="M2200 6934 c-22 -20 -40 -42 -40 -50 0 -22 20 -27 39 -10 24 22 31
11 31 -49 0 -42 -5 -56 -25 -75 -32 -30 -53 -97 -69 -217 l-12 -98 -79 0 -80
0 -21 120 c-24 140 -33 165 -70 194 -70 55 -117 -19 -146 -224 l-13 -90 -80
-5 c-62 -4 -80 -8 -80 -20 0 -12 17 -16 75 -20 l75 -5 -3 -50 c-3 -63 -27
-149 -47 -165 -22 -18 -44 -5 -61 35 -15 37 -31 45 -40 21 -7 -19 31 -92 51
-100 73 -28 108 24 142 214 l8 45 85 0 84 0 17 -92 c24 -128 50 -173 100 -173
41 0 74 47 93 129 9 39 16 81 16 94 0 31 22 50 52 45 l23 -3 5 -265 c3 -167 9
-265 15 -265 6 0 12 98 15 265 l5 265 35 0 c35 0 35 0 42 -55 20 -145 53 -210
107 -210 50 0 76 45 100 173 l18 92 78 3 c43 2 82 -1 86 -5 5 -5 15 -45 23
-89 23 -135 63 -189 125 -169 24 7 65 80 57 101 -9 24 -24 16 -43 -23 -37 -76
-72 -47 -99 81 -8 42 -13 84 -10 92 5 14 57 20 69 8 3 -3 1 -15 -6 -25 -9 -14
-9 -21 1 -31 9 -9 20 -4 52 27 22 21 40 44 40 50 0 6 -18 29 -40 50 -30 30
-43 36 -52 27 -8 -8 -8 -15 2 -26 15 -19 -4 -29 -47 -24 -26 3 -29 7 -36 63
-15 108 -37 200 -57 233 -15 25 -26 32 -51 32 -16 0 -39 -5 -49 -10 -24 -13
-55 -114 -70 -225 -6 -44 -14 -83 -19 -88 -14 -14 -143 -4 -151 13 -5 8 -13
54 -19 102 -14 103 -32 159 -66 200 -39 46 -31 152 9 119 17 -14 36 -7 36 13
0 12 -71 86 -83 86 -4 0 -25 -16 -47 -36z m-331 -235 c22 -35 41 -127 44 -209
l2 -55 -75 0 -75 0 2 63 c5 117 42 232 75 232 4 0 17 -14 27 -31z m804 13 c23
-25 46 -123 49 -207 l3 -70 -75 0 -75 0 3 60 c6 110 43 235 71 235 4 0 15 -8
24 -18z m-381 -48 c17 -61 37 -219 29 -227 -5 -5 -19 -7 -32 -5 -24 3 -24 5
-27 136 -2 102 0 133 10 130 6 -2 16 -18 20 -34z m-67 -110 c0 -118 0 -119
-24 -122 -35 -5 -40 7 -30 78 16 116 30 171 42 167 8 -2 12 -41 12 -123z
m-111 -172 c7 -12 -20 -156 -36 -188 -32 -68 -77 -22 -98 100 -7 41 -9 79 -6
85 8 12 132 15 140 3z m403 -8 c9 -24 -24 -174 -43 -195 -34 -38 -55 -18 -80
76 -15 54 -18 117 -7 128 3 4 33 7 65 7 44 0 60 -4 65 -16z"/>
<path d="M7153 6750 c-28 -11 -63 -66 -63 -98 0 -36 27 -80 60 -97 39 -20 69
-19 108 5 62 38 70 114 18 166 -36 36 -75 43 -123 24z m97 -50 c40 -40 8 -120
-49 -120 -33 0 -71 37 -71 69 0 59 78 93 120 51z"/>
<path d="M4288 6571 c-42 -36 -53 -79 -34 -124 17 -41 36 -57 80 -64 73 -12
126 36 126 111 0 50 -42 96 -96 103 -35 4 -45 1 -76 -26z m113 -29 c15 -13 22
-30 22 -52 0 -66 -82 -95 -122 -44 -27 35 -26 59 4 89 29 30 64 32 96 7z"/>
<path d="M3348 6341 c-180 -36 -332 -71 -338 -77 -6 -6 -10 -29 -8 -50 3 -34
6 -40 33 -44 l30 -5 5 -435 5 -435 299 -5 c295 -5 329 -9 294 -37 -11 -9 -272
-122 -430 -187 -39 -15 -49 -33 -25 -42 7 -2 93 29 189 71 97 41 183 75 190
75 8 0 31 -17 51 -38 27 -27 37 -47 37 -69 0 -18 4 -34 9 -38 13 -7 31 27 31
57 0 25 56 88 78 88 7 0 94 -34 193 -76 134 -57 183 -74 192 -65 7 7 7 14 1
20 -5 4 -110 52 -234 104 -310 132 -311 131 70 137 l295 5 5 435 5 435 30 5
c27 5 30 9 33 46 2 25 -2 45 -10 51 -12 9 -670 144 -693 142 -5 -1 -157 -31
-337 -68z m330 -15 c2 -16 -1 -33 -6 -38 -14 -14 -363 -17 -359 -4 4 12 292
75 332 73 25 -2 31 -7 33 -31z m235 2 c96 -19 166 -37 164 -43 -5 -15 -335
-19 -353 -4 -17 14 -5 78 14 79 4 0 82 -14 175 -32z m217 -48 c0 -5 -7 -10
-15 -10 -8 0 -15 5 -15 10 0 6 7 10 15 10 8 0 15 -4 15 -10z m213 -55 c2 -10
-1265 -20 -1291 -10 -7 3 -10 9 -7 15 9 14 1294 9 1298 -5z m-58 -475 l0 -415
-579 -3 c-319 -1 -584 2 -588 6 -9 9 -12 808 -3 823 4 5 235 8 588 7 l582 -3
0 -415z m-609 -575 c-5 -14 -9 -15 -21 -5 -12 10 -13 16 -4 27 15 18 34 1 25
-22z m68 4 c-8 -14 -34 -11 -34 4 0 8 3 17 7 20 9 9 34 -13 27 -24z"/>
<path d="M3220 5850 c-11 -11 -20 -24 -20 -29 0 -20 22 -22 40 -6 27 25 31 9
28 -111 l-3 -99 -30 -5 c-43 -7 -39 -34 6 -38 58 -5 68 15 71 148 l3 115 45 0
45 0 5 -113 c5 -105 7 -115 29 -133 26 -21 62 -22 69 -2 2 7 -8 17 -22 22 -38
15 -47 43 -44 138 l3 88 30 5 c18 3 30 11 30 20 0 12 -23 15 -132 18 -122 2
-134 1 -153 -18z"/>
<path d="M3696 5851 c-18 -20 -19 -71 -1 -72 6 0 12 10 15 23 5 20 12 23 50
23 l45 0 0 -45 c0 -39 -3 -45 -25 -50 -14 -3 -25 -12 -25 -20 0 -8 11 -17 25
-20 21 -5 25 -12 25 -45 0 -40 0 -40 -40 -40 -33 0 -40 4 -45 25 -9 38 -34 31
-38 -10 -5 -45 17 -60 83 -60 79 0 85 11 85 157 0 142 -6 153 -87 153 -36 0
-55 -5 -67 -19z"/>
<path d="M3957 5864 c-10 -11 -8 -292 2 -298 24 -15 31 26 29 160 -3 128 -10
159 -31 138z"/>
<path d="M4027 5863 c-4 -3 -7 -37 -7 -74 0 -62 2 -70 25 -85 15 -10 34 -14
48 -10 38 9 56 -13 59 -74 2 -41 7 -55 18 -55 13 0 15 23 15 150 0 127 -2 150
-15 150 -11 0 -16 -16 -20 -65 l-5 -65 -45 0 -45 0 -3 60 c-3 59 -12 82 -25
68z"/>
<path d="M3475 5760 c-14 -23 13 -31 91 -28 62 2 79 6 79 18 0 12 -17 16 -82
18 -52 2 -84 -1 -88 -8z"/>
<path d="M3475 5690 c-14 -23 13 -31 91 -28 62 2 79 6 79 18 0 12 -17 16 -82
18 -52 2 -84 -1 -88 -8z"/>
<path d="M3884 5587 c-11 -29 0 -92 16 -92 11 0 15 12 15 49 0 49 -19 74 -31
43z"/>
<path d="M4555 6398 c-3 -7 -4 -319 -3 -693 l3 -680 690 0 690 0 0 690 0 690
-450 3 -449 2 -73 -72 -73 -72 0 -73 c0 -39 -4 -74 -8 -77 -5 -3 -75 62 -158
145 -82 82 -152 149 -157 149 -4 0 -10 -6 -12 -12z m1340 -683 l0 -650 -480 0
-480 0 0 585 0 585 60 5 60 5 3 50 c1 28 5 56 7 63 4 10 92 12 417 10 l413 -3
0 -650z m-1005 229 c0 -55 -3 -104 -7 -108 -4 -3 -28 14 -54 40 -81 80 -80 87
-77 -308 l3 -343 65 -5 65 -5 0 -75 0 -75 -142 0 c-88 0 -143 4 -144 10 0 6 9
12 21 15 29 7 30 23 3 35 -37 16 -27 24 35 27 43 2 57 7 57 18 0 11 -15 16
-58 20 -62 5 -79 22 -31 30 17 3 29 11 29 20 0 9 -12 17 -29 20 -48 8 -31 25
31 30 43 4 58 9 58 20 0 11 -15 16 -58 20 -59 5 -77 21 -35 30 30 7 30 34 1
38 -44 6 -22 21 35 24 43 2 57 7 57 18 0 11 -15 16 -58 20 -62 5 -79 22 -31
30 38 7 38 33 -1 40 -48 8 -30 25 32 30 43 4 58 9 58 20 0 11 -15 16 -58 20
-55 5 -79 21 -40 28 41 7 46 11 33 27 -7 8 -21 15 -31 15 -11 0 -19 4 -19 10
0 5 26 10 58 12 43 2 57 7 57 18 0 11 -15 16 -58 20 -62 5 -79 22 -31 30 17 3
29 11 29 20 0 9 -12 17 -29 20 -48 8 -31 25 31 30 43 4 58 9 58 20 0 11 -15
16 -58 20 -62 5 -79 22 -31 30 17 3 29 11 29 20 0 9 -12 17 -29 20 -45 8 -27
25 26 25 49 1 75 15 64 34 -4 6 -30 9 -58 8 -52 -2 -82 18 -36 25 30 4 30 30
0 38 -42 9 -24 25 35 30 43 4 58 9 58 20 0 11 -15 16 -58 20 -62 5 -80 22 -32
30 17 3 30 11 30 20 0 9 -12 17 -30 20 -27 5 -30 9 -33 49 -6 87 0 84 153 -69
l145 -145 0 -101z m127 352 c-8 -19 -37 -21 -37 -3 0 7 5 18 12 25 15 15 33
-1 25 -22z m-129 -786 l-3 -245 -45 0 -45 0 -3 275 c-1 151 0 281 3 289 4 11
18 3 51 -30 l44 -43 -2 -246z"/>
<path d="M5165 6328 c-2 -7 -6 -51 -7 -98 l-3 -85 -95 -5 c-76 -4 -95 -8 -95
-20 0 -12 19 -16 95 -20 l95 -5 0 -110 0 -110 -95 -5 c-76 -4 -95 -8 -95 -20
0 -12 19 -16 95 -20 l95 -5 0 -110 0 -110 -95 -5 c-76 -4 -95 -8 -95 -20 0
-12 19 -16 95 -20 l95 -5 5 -110 c4 -89 8 -110 20 -110 12 0 16 21 20 110 l5
110 105 3 c98 3 105 1 121 -19 l17 -23 33 33 33 33 -23 17 c-20 16 -22 23 -19
121 l3 105 110 5 c89 4 110 8 110 20 0 12 -21 16 -110 20 l-110 5 0 110 0 110
110 0 110 0 5 -90 c4 -71 8 -90 20 -90 12 0 16 18 18 88 3 83 4 88 27 97 32
12 32 28 0 40 -23 9 -24 14 -27 102 -2 75 -6 93 -18 93 -12 0 -16 -19 -20 -95
l-5 -95 -110 0 -110 0 -5 95 c-4 76 -8 95 -20 95 -12 0 -16 -19 -20 -95 l-5
-95 -110 0 -110 0 -5 94 c-3 63 -9 96 -17 99 -7 2 -15 -2 -18 -10z m260 -343
l0 -110 -110 0 -110 0 -3 99 c-1 55 0 106 2 113 4 11 30 13 113 11 l108 -3 0
-110z m0 -270 l0 -110 -110 0 -110 0 -3 99 c-1 55 0 106 2 113 4 11 30 13 113
11 l108 -3 0 -110z"/>
<path d="M5841 6248 c-4 -13 -11 -56 -15 -97 -23 -261 -230 -583 -491 -765
-100 -69 -253 -144 -332 -161 -37 -7 -50 -22 -35 -37 15 -15 130 22 240 77
156 78 294 190 406 330 115 141 180 265 228 425 23 80 36 234 19 244 -6 4 -15
-2 -20 -16z"/>
<path d="M5815 5860 c-4 -7 -3 -16 3 -22 14 -14 47 -6 47 12 0 18 -40 26 -50
10z"/>
<path d="M5707 5664 c-4 -4 -7 -18 -7 -31 0 -16 -8 -27 -25 -33 -32 -12 -32
-28 0 -40 26 -10 26 -10 23 -117 l-3 -108 -108 -3 c-107 -3 -107 -3 -117 23
-12 32 -28 32 -40 1 -6 -17 -18 -26 -37 -28 -38 -4 -37 -31 2 -38 l30 -5 5
-95 c4 -76 8 -95 20 -95 12 0 16 19 20 95 l5 95 110 0 110 0 5 -95 c4 -76 8
-95 20 -95 12 0 16 19 20 95 l5 95 60 5 c44 4 60 9 60 20 0 11 -16 16 -60 20
l-60 5 0 110 0 110 60 5 c44 4 60 9 60 20 0 11 -16 16 -60 20 -57 5 -60 6 -65
34 -5 29 -20 43 -33 30z"/>
<path d="M4965 5320 c-14 -22 12 -31 81 -28 53 2 69 6 69 18 0 12 -16 16 -72
18 -45 2 -74 -1 -78 -8z"/>
<path d="M5164 5197 c-11 -29 0 -102 16 -102 19 0 22 106 3 112 -7 3 -16 -2
-19 -10z"/>
<path d="M6055 6398 c-3 -7 -4 -319 -3 -693 l3 -680 139 -3 c77 -1 143 1 147
5 5 5 9 316 9 693 l2 685 -146 3 c-112 2 -148 0 -151 -10z m258 -43 c-2 -5
-31 -12 -65 -15 -47 -4 -63 -9 -63 -20 0 -11 15 -16 63 -18 34 -2 62 -7 62
-12 0 -6 -8 -10 -19 -10 -10 0 -24 -7 -31 -15 -13 -16 -7 -20 34 -27 41 -6 13
-23 -46 -28 -47 -4 -63 -9 -63 -20 0 -11 16 -16 63 -20 67 -5 87 -21 37 -30
-39 -7 -39 -33 -1 -40 50 -8 30 -25 -36 -30 -47 -4 -63 -9 -63 -20 0 -11 15
-16 63 -18 34 -2 62 -6 62 -10 0 -4 -14 -13 -32 -20 -34 -13 -30 -28 10 -34
45 -6 21 -23 -40 -28 -47 -4 -63 -9 -63 -20 0 -11 16 -16 63 -20 67 -5 87 -21
37 -30 -39 -7 -39 -33 -1 -40 50 -8 30 -25 -36 -30 -47 -4 -63 -9 -63 -20 0
-11 15 -16 63 -18 68 -3 79 -14 31 -31 -36 -13 -34 -35 4 -39 50 -6 27 -21
-35 -24 -48 -2 -63 -7 -63 -18 0 -11 16 -16 63 -20 66 -5 86 -22 36 -30 -38
-7 -38 -33 1 -40 50 -9 30 -25 -37 -30 -47 -4 -63 -9 -63 -20 0 -11 16 -16 63
-20 66 -5 86 -22 36 -30 -37 -7 -39 -34 -1 -38 48 -6 29 -22 -27 -22 -35 0
-58 -5 -66 -15 -16 -19 -4 -23 70 -27 59 -3 73 -20 24 -28 -17 -3 -29 -11 -29
-20 0 -9 12 -17 29 -20 50 -8 30 -25 -36 -30 -47 -4 -63 -9 -63 -20 0 -11 16
-16 63 -20 66 -5 86 -22 36 -30 -37 -7 -39 -34 -1 -38 48 -6 29 -22 -27 -22
-35 0 -58 -5 -66 -15 -16 -19 -4 -23 68 -27 29 -2 52 -7 52 -13 0 -6 -44 -10
-112 -10 l-113 0 0 635 c0 349 3 643 7 653 7 16 20 17 115 15 66 -2 107 -7
106 -13z"/>
<path d="M6475 6398 c-3 -7 -4 -319 -3 -693 l3 -680 314 -3 c194 -1 318 1 324
7 7 7 6 15 -1 24 -12 14 0 70 19 91 4 5 51 -7 110 -29 104 -40 119 -40 143 -2
10 16 -51 112 -329 514 -47 68 -85 129 -85 136 0 15 53 57 72 57 8 0 85 -103
172 -230 87 -126 162 -230 166 -230 28 0 14 34 -49 127 -40 57 -71 111 -69
120 2 9 16 25 31 37 37 27 48 19 120 -85 72 -105 93 -127 108 -112 7 7 -3 29
-35 76 -52 74 -56 98 -21 121 40 26 53 20 103 -50 75 -106 89 -121 102 -108 9
9 3 25 -24 64 -20 29 -36 56 -36 61 0 4 16 20 35 35 34 26 36 26 55 9 12 -10
46 -56 76 -102 51 -77 72 -94 81 -67 2 6 -27 55 -65 110 -60 88 -72 99 -101
102 -22 2 -45 -5 -71 -22 l-37 -25 -32 33 -31 32 -2 344 -3 345 -518 3 c-409
2 -519 0 -522 -10z m1003 -360 c1 -217 -1 -328 -8 -328 -11 0 -12 23 -14 390
l-1 235 -455 0 -455 0 0 -620 0 -620 258 -5 c161 -3 257 -9 257 -15 0 -6 -98
-10 -272 -10 l-273 0 -3 640 c-1 352 0 646 3 653 3 10 105 12 482 10 l478 -3
3 -327z m-63 200 c0 -65 -17 -82 -25 -28 -9 53 -17 60 -69 60 -55 0 -68 -11
-73 -60 -4 -45 -21 -45 -28 0 -9 53 -17 60 -69 60 -55 0 -68 -11 -73 -60 -4
-45 -21 -45 -28 0 -9 53 -17 60 -69 60 -55 0 -68 -11 -73 -60 -4 -45 -21 -45
-28 0 -9 53 -17 60 -69 60 -55 0 -68 -11 -73 -60 l-3 -35 -75 0 -75 0 -3 49
c-2 27 -1 55 2 62 5 12 74 14 418 12 l413 -3 0 -57z m-580 -83 c0 -79 0 -80
-25 -80 -24 0 -25 3 -28 69 -4 84 1 98 30 94 22 -3 23 -8 23 -83z m170 0 c0
-79 0 -80 -25 -80 -24 0 -25 3 -28 69 -4 84 1 98 30 94 22 -3 23 -8 23 -83z
m170 0 c0 -79 0 -80 -25 -80 -24 0 -25 3 -28 69 -4 84 1 98 30 94 22 -3 23 -8
23 -83z m170 0 c0 -79 0 -80 -25 -80 -24 0 -25 3 -28 69 -4 84 1 98 30 94 22
-3 23 -8 23 -83z m-617 -27 c7 -7 12 -24 12 -39 0 -32 32 -59 70 -59 42 0 70
26 70 66 0 24 5 34 15 34 10 0 15 -10 15 -34 0 -40 28 -66 70 -66 39 0 62 22
69 66 8 48 25 47 29 -1 8 -88 142 -87 142 1 0 24 5 34 15 34 10 0 15 -10 15
-34 0 -40 28 -66 70 -66 39 0 62 22 69 65 3 21 11 37 16 36 13 -1 13 -240 1
-243 -6 -2 -14 13 -19 32 -13 50 -24 60 -72 60 -49 0 -62 -12 -67 -60 -4 -43
-22 -46 -26 -5 -5 44 -29 65 -72 65 -43 0 -67 -21 -72 -65 -1 -16 -7 -30 -13
-30 -5 0 -12 14 -13 30 -5 46 -29 65 -78 65 -47 0 -55 -8 -63 -58 -8 -42 -25
-46 -29 -7 -5 44 -29 65 -72 65 -43 0 -67 -21 -72 -65 -3 -30 -4 -30 -72 -33
-38 -2 -73 1 -77 5 -10 10 -14 226 -5 242 10 15 129 14 144 -1z m107 -268 c0
-73 -1 -75 -25 -75 -24 0 -25 3 -28 64 -4 78 1 93 30 89 22 -3 23 -8 23 -78z
m173 34 c3 -34 -1 -44 -21 -57 -32 -20 -37 -14 -37 43 0 53 6 62 35 58 16 -2
21 -12 23 -44z m167 -34 c0 -73 -1 -75 -25 -75 -24 0 -25 3 -28 64 -4 78 1 93
30 89 22 -3 23 -8 23 -78z m170 0 c0 -73 -1 -75 -25 -75 -24 0 -25 3 -28 64
-4 78 1 93 30 89 22 -3 23 -8 23 -78z m-607 -55 c5 -44 29 -65 72 -65 43 0 67
21 72 65 4 37 21 36 28 -2 6 -34 30 -79 77 -145 23 -31 32 -53 26 -59 -6 -6
-95 -8 -219 -7 l-209 3 -3 109 c-1 61 0 116 2 123 4 10 24 13 78 11 73 -3 73
-3 76 -33z m512 -2 c0 -37 27 -63 65 -63 41 0 65 19 73 58 12 57 27 35 30 -45
4 -103 0 -111 -40 -78 -36 31 -72 29 -115 -5 -34 -27 -38 -26 -69 15 l-26 35
26 31 c14 17 26 41 26 53 0 13 3 26 6 29 12 12 24 -4 24 -30z m-143 -318 c23
-33 41 -64 39 -70 -1 -5 -16 -16 -32 -25 -22 -13 -30 -26 -34 -54 -7 -49 -23
-50 -31 -2 -8 50 -33 69 -79 61 -47 -9 -58 -20 -62 -63 -4 -48 -22 -48 -26 0
-4 42 -31 68 -72 68 -41 0 -68 -26 -72 -68 l-3 -37 -75 0 -75 0 -3 114 c-1 63
0 121 2 128 4 11 53 13 243 11 l237 -3 43 -60z m-272 -210 c0 -79 0 -80 -25
-80 -24 0 -25 3 -28 69 -4 84 1 98 30 94 22 -3 23 -8 23 -83z m170 0 c0 -79 0
-80 -25 -80 -24 0 -25 3 -28 69 -4 84 1 98 30 94 22 -3 23 -8 23 -83z m170 0
c0 -79 0 -80 -25 -80 -24 0 -25 3 -28 69 -4 84 1 98 30 94 22 -3 23 -8 23 -83z
m-437 -57 c4 -42 31 -68 72 -68 39 0 62 22 69 66 8 48 25 47 29 -1 4 -46 38
-70 87 -61 39 8 47 16 55 66 3 19 10 35 15 35 13 0 28 -106 17 -117 -10 -10
-475 -14 -491 -4 -12 8 -15 108 -4 120 4 4 39 5 78 4 l70 -3 3 -37z m512 -3
c0 -38 28 -65 67 -65 12 0 24 -4 28 -9 12 -20 -15 -19 -71 3 l-59 22 4 40 c1
21 5 42 8 47 10 16 23 -6 23 -38z"/>
<path d="M2639 5961 c-81 -26 -129 -96 -129 -187 0 -101 66 -174 165 -182 70
-6 116 11 159 58 108 119 38 301 -121 315 -26 2 -60 1 -74 -4z m131 -53 c55
-38 75 -73 75 -131 0 -163 -221 -209 -287 -60 -59 133 95 270 212 191z"/>
<path d="M1625 5914 c-139 -34 -273 -126 -359 -247 -58 -82 -84 -145 -105
-247 -16 -81 -18 -85 -47 -90 l-29 -5 0 -150 0 -150 690 0 690 0 0 150 0 150
-30 5 c-28 5 -31 9 -36 55 -18 142 -73 250 -184 360 -90 90 -161 133 -275 164
-89 25 -224 27 -315 5z m135 -69 c3 -27 10 -40 20 -40 10 0 17 13 20 40 4 35
8 40 30 40 23 0 25 -3 22 -37 -2 -21 -1 -42 3 -48 10 -17 35 8 35 35 0 32 23
49 49 36 19 -11 19 -14 6 -52 -25 -71 5 -84 35 -15 15 37 22 44 39 39 32 -8
35 -20 11 -60 -15 -26 -18 -39 -10 -47 8 -8 19 -1 42 26 25 32 33 36 49 28 24
-14 24 -24 -3 -60 -18 -24 -19 -33 -9 -43 10 -9 18 -5 41 23 l29 35 23 -23 23
-23 -34 -29 c-18 -16 -30 -33 -27 -39 11 -17 27 -13 53 11 19 18 28 20 41 12
29 -19 25 -40 -13 -62 -19 -12 -35 -26 -35 -31 0 -21 22 -21 57 0 35 22 36 22
50 4 18 -26 13 -37 -30 -58 -59 -28 -44 -58 17 -33 29 12 37 12 46 1 20 -25 8
-50 -27 -53 -39 -4 -64 -28 -39 -38 9 -4 30 -4 47 0 25 5 31 2 38 -17 5 -12 7
-25 4 -29 -6 -11 -223 -10 -223 0 0 5 12 14 26 21 31 14 27 36 -7 36 -32 0
-36 15 -8 29 29 15 25 31 -9 32 -47 2 -48 4 -17 29 22 18 27 27 18 36 -8 8
-16 8 -32 -1 -33 -17 -46 -1 -20 26 19 20 20 24 6 30 -8 3 -24 1 -35 -5 -27
-14 -34 -3 -15 25 14 22 14 24 -1 30 -10 4 -25 -1 -35 -10 -24 -22 -37 -5 -19
23 10 17 10 23 0 33 -10 10 -17 7 -37 -17 -25 -30 -27 -29 -29 14 -1 34 -24
38 -36 6 -12 -31 -30 -25 -30 10 0 34 -18 40 -32 11 -15 -34 -26 -33 -30 2 -4
37 -31 35 -38 -3 -6 -35 -23 -37 -30 -3 -8 32 -34 29 -38 -4 -4 -35 -19 -36
-32 -2 -12 31 -36 26 -33 -7 3 -46 -6 -56 -27 -29 -15 20 -21 23 -32 12 -10
-10 -10 -17 0 -32 16 -27 -4 -37 -29 -14 -15 13 -22 15 -31 6 -9 -9 -7 -16 6
-31 21 -24 5 -37 -23 -19 -16 10 -23 10 -33 0 -9 -9 -7 -16 7 -32 22 -25 12
-39 -17 -21 -33 20 -47 -3 -20 -32 25 -27 20 -39 -13 -31 -33 8 -40 -12 -10
-32 29 -19 24 -34 -10 -34 -34 0 -40 -18 -11 -32 48 -21 26 -29 -81 -26 -108
3 -108 3 -108 28 0 22 4 25 34 22 19 -1 41 0 49 3 21 8 -4 35 -33 35 -33 0
-48 22 -31 46 13 17 18 17 50 6 36 -13 56 -10 56 9 0 5 -21 19 -46 29 -45 20
-47 25 -21 57 7 10 18 8 49 -8 31 -16 43 -18 52 -9 8 9 6 15 -8 24 -10 6 -30
20 -43 31 l-25 20 21 19 c19 17 21 17 56 -10 28 -21 38 -24 48 -15 9 10 4 20
-27 47 l-40 35 23 22 22 22 29 -34 c19 -22 34 -32 44 -28 22 9 20 20 -9 47
-31 29 -32 46 -3 61 18 10 24 9 35 -7 34 -52 42 -59 53 -48 8 8 6 21 -7 48
-17 37 -17 38 1 52 24 17 34 10 52 -32 23 -54 52 -41 33 15 -8 24 -8 35 2 47
20 24 41 12 53 -31 15 -53 42 -55 38 -3 -4 46 4 60 31 56 17 -2 23 -12 27 -43z
m157 -256 c34 -16 76 -46 94 -66 40 -46 82 -135 77 -165 l-3 -23 -310 0 -310
0 3 33 c6 78 96 194 177 228 96 40 178 37 272 -7z m508 -411 c0 -115 -16 -150
-25 -53 -3 30 -9 55 -15 55 -5 0 -12 -25 -15 -55 -5 -57 -21 -74 -30 -33 -3
13 -12 23 -20 23 -8 0 -17 -10 -20 -23 -9 -42 -25 -24 -30 35 -4 43 -9 58 -20
58 -11 0 -16 -15 -20 -58 -5 -59 -21 -77 -30 -35 -3 13 -12 23 -20 23 -8 0
-17 -10 -20 -23 -9 -41 -25 -24 -30 33 -3 30 -9 55 -15 55 -5 0 -12 -25 -15
-55 -5 -57 -21 -74 -30 -33 -3 13 -12 23 -20 23 -8 0 -17 -10 -20 -23 -9 -42
-25 -24 -30 35 -4 43 -9 58 -20 58 -11 0 -16 -15 -20 -58 -5 -59 -21 -77 -30
-35 -3 13 -12 23 -20 23 -8 0 -17 -10 -20 -23 -9 -41 -25 -24 -30 33 -3 30 -9
55 -15 55 -5 0 -12 -25 -15 -55 -5 -57 -21 -74 -30 -33 -3 13 -12 23 -20 23
-8 0 -17 -10 -20 -23 -9 -42 -25 -24 -30 35 -4 43 -9 58 -20 58 -11 0 -16 -15
-20 -58 -5 -59 -21 -77 -30 -35 -3 13 -12 23 -20 23 -8 0 -17 -10 -20 -23 -9
-42 -25 -24 -30 35 -4 43 -9 58 -20 58 -11 0 -16 -15 -20 -58 -5 -54 -25 -82
-25 -34 0 29 -28 29 -35 -1 -9 -42 -25 -24 -30 35 -4 43 -9 58 -20 58 -11 0
-16 -15 -20 -58 -5 -59 -21 -77 -30 -35 -3 13 -12 23 -20 23 -8 0 -17 -10 -20
-23 -9 -42 -25 -24 -30 35 -4 43 -9 58 -20 58 -11 0 -16 -15 -20 -58 -3 -31
-9 -56 -15 -55 -5 2 -9 8 -7 14 1 6 -4 17 -13 24 -15 13 -15 12 -31 -39 -9
-28 -23 4 -26 59 -2 41 -7 55 -18 55 -11 0 -16 -15 -20 -58 -3 -31 -9 -57 -15
-57 -10 0 -20 183 -11 207 5 11 122 13 653 11 l648 -3 0 -107z"/>
<path d="M2755 5316 c-56 -26 -88 -70 -92 -128 -5 -67 19 -114 73 -145 74 -42
154 -23 208 50 29 39 29 125 0 163 -48 64 -126 89 -189 60z m119 -45 c57 -38
71 -101 36 -159 -22 -36 -54 -52 -107 -52 -27 0 -43 8 -69 34 -29 29 -34 41
-34 79 0 95 97 149 174 98z"/>
<path d="M4304 5221 c-93 -57 -47 -201 65 -201 51 0 101 54 101 110 0 34 -6
48 -34 76 -40 40 -83 45 -132 15z m106 -41 c43 -43 11 -120 -49 -120 -32 0
-71 39 -71 70 0 10 9 29 21 44 25 32 70 35 99 6z"/>
<path d="M7827 5210 c-33 -28 -37 -37 -37 -79 0 -28 7 -54 18 -67 67 -83 191
-42 192 63 0 58 -39 102 -96 110 -36 5 -45 1 -77 -27z m111 -27 c35 -30 38
-68 8 -97 -46 -46 -105 -29 -121 36 -5 21 -1 33 19 52 29 30 65 33 94 9z"/>
<path d="M7049 4893 c-63 -21 -137 -79 -175 -136 -51 -78 -67 -143 -62 -261 3
-91 7 -109 36 -169 60 -120 152 -178 298 -185 83 -4 97 -2 152 23 33 15 75 42
93 61 l33 34 -50 56 c-70 80 -74 82 -120 50 -73 -49 -160 -28 -195 47 -22 51
-26 162 -5 210 33 81 119 109 197 65 38 -21 39 -21 60 -2 12 10 39 41 61 67
l41 48 -24 26 c-13 14 -51 39 -84 54 -50 24 -72 29 -135 28 -41 0 -96 -7 -121
-16z m236 -42 c22 -10 47 -27 57 -37 15 -18 14 -21 -18 -58 l-34 -40 -35 17
c-120 57 -240 -27 -252 -176 -16 -194 106 -309 249 -236 l41 21 41 -41 41 -42
-25 -19 c-37 -28 -89 -52 -135 -61 -50 -10 -156 6 -204 31 -46 23 -115 97
-135 145 -60 143 -32 325 65 424 90 94 230 123 344 72z"/>
<path d="M7630 4884 c-65 -30 -96 -56 -120 -104 -28 -54 -34 -103 -20 -162 19
-78 79 -133 200 -182 106 -44 126 -57 117 -80 -12 -30 -101 -21 -169 17 l-60
32 -59 -65 c-32 -36 -59 -73 -59 -82 0 -24 74 -73 148 -97 68 -23 182 -28 244
-11 103 29 188 132 188 227 0 120 -50 180 -197 237 -101 40 -141 66 -129 85
13 21 100 12 151 -15 26 -14 51 -21 55 -17 79 94 100 122 100 131 0 5 -15 23
-34 40 -85 74 -250 96 -356 46z m260 -35 c27 -12 56 -29 65 -39 16 -18 15 -21
-16 -59 -18 -23 -33 -41 -34 -41 -1 0 -17 8 -36 17 -78 39 -177 25 -194 -27
-12 -39 19 -65 130 -110 156 -63 195 -104 195 -204 0 -58 -14 -93 -53 -135
-59 -62 -157 -89 -261 -71 -65 10 -164 54 -173 76 -5 15 56 94 74 94 6 0 35
-11 65 -25 72 -34 140 -34 173 0 51 50 24 85 -108 140 -116 49 -148 72 -174
125 -39 75 -28 147 30 208 78 81 201 101 317 51z"/>
<path d="M1015 4887 c-3 -6 -4 -174 -3 -372 l3 -360 100 0 100 0 3 133 c1 72
6 132 11 132 5 0 26 -42 46 -92 20 -51 42 -99 48 -106 6 -8 27 -12 56 -10 l45
3 45 113 c24 61 48 112 52 112 5 0 10 -64 11 -142 l3 -143 100 0 100 0 0 370
0 370 -104 3 c-60 2 -108 -2 -115 -8 -7 -5 -39 -84 -72 -175 -33 -94 -64 -165
-71 -165 -7 0 -13 6 -13 12 0 17 -111 309 -123 326 -13 17 -216 17 -222 -1z
m266 -212 c85 -228 82 -220 97 -220 9 0 41 74 85 200 l72 200 80 0 80 0 0
-330 0 -330 -65 0 -65 0 -3 70 c-2 39 2 129 8 200 17 190 18 180 -4 180 -14 0
-26 -23 -55 -105 -56 -156 -107 -273 -123 -284 -35 -22 -47 2 -177 344 -10 25
-24 45 -32 45 -11 0 -13 -14 -9 -75 3 -41 5 -142 5 -225 l0 -150 -60 0 -60 0
-3 320 c-1 176 0 326 3 333 3 9 25 12 81 10 l77 -3 68 -180z"/>
<path d="M2005 4888 c-2 -7 -15 -49 -29 -93 -13 -44 -61 -201 -106 -348 -45
-148 -79 -275 -76 -283 5 -12 26 -14 113 -12 l107 3 16 62 c8 34 20 67 26 73
6 7 41 10 85 8 l74 -3 13 -45 c30 -106 14 -95 136 -98 60 -1 113 1 117 5 7 7
-200 707 -216 733 -10 15 -255 13 -260 -2z m232 -40 c5 -7 36 -101 68 -208 32
-107 75 -250 96 -318 27 -92 34 -125 24 -128 -6 -3 -41 -4 -76 -2 -70 3 -61
-6 -91 98 l-13 45 -104 3 c-65 2 -108 -1 -115 -8 -6 -6 -18 -39 -26 -73 l-16
-62 -63 -3 c-35 -2 -68 1 -73 6 -8 8 140 526 181 635 10 27 11 27 105 27 63 0
97 -4 103 -12z"/>
<path d="M2115 4748 c-15 -42 -65 -281 -60 -288 7 -12 152 -14 158 -2 6 8 -54
271 -66 290 -5 6 -13 12 -18 12 -5 0 -12 -6 -14 -12z m35 -160 c20 -72 18 -93
-9 -96 -39 -6 -45 10 -31 77 7 34 16 61 21 61 5 0 13 -19 19 -42z"/>
<path d="M2407 4893 c-4 -3 -7 -44 -7 -90 0 -98 -2 -96 109 -97 l76 -1 5 -275
5 -275 110 0 110 0 5 275 5 275 85 5 85 5 0 90 0 90 -291 3 c-160 1 -293 -1
-297 -5z m558 -93 l0 -55 -90 -5 -90 -5 -5 -270 -5 -270 -70 0 -70 0 -5 270
-5 270 -90 5 -90 5 -3 44 c-6 76 -22 72 265 69 l258 -3 0 -55z"/>
<path d="M3075 4888 c-3 -7 -4 -175 -3 -373 l3 -360 110 0 110 0 5 135 5 135
80 0 80 0 5 -135 5 -135 110 0 110 0 0 370 0 370 -110 0 -110 0 -5 -125 -5
-125 -80 0 -80 0 -5 125 -5 125 -108 3 c-80 2 -109 -1 -112 -10z m185 -158 l5
-125 120 0 120 0 5 125 5 125 70 0 70 0 0 -330 0 -330 -70 0 -70 0 -5 135 -5
135 -120 0 -120 0 -5 -135 -5 -135 -70 0 -70 0 -3 320 c-1 176 0 326 3 333 3
9 24 12 72 10 l68 -3 5 -125z"/>
<path d="M3825 4888 c-3 -7 -4 -175 -3 -373 l3 -360 250 0 250 0 3 84 c2 51
-1 88 -8 95 -6 6 -68 13 -143 16 l-132 5 0 40 0 40 107 0 c61 1 112 5 118 11
7 7 10 46 8 95 l-3 84 -115 5 -115 5 0 35 0 35 135 5 135 5 0 90 0 90 -243 3
c-189 2 -244 0 -247 -10z m450 -88 l0 -55 -130 -5 -130 -5 0 -70 0 -70 110 -5
110 -5 0 -55 0 -55 -110 -5 -110 -5 0 -75 0 -75 135 -5 135 -5 0 -55 0 -55
-210 0 -210 0 -3 320 c-1 176 0 326 3 333 3 10 50 12 207 10 l203 -3 0 -55z"/>
<path d="M4435 4887 c-3 -6 -4 -174 -3 -372 l3 -360 100 0 100 0 3 133 c1 72
6 132 10 132 5 0 23 -37 42 -82 48 -122 54 -128 100 -128 47 0 51 5 106 138
21 50 41 92 45 92 4 0 5 -60 2 -133 -5 -111 -3 -135 10 -145 10 -9 44 -12 108
-10 l94 3 0 370 0 370 -114 0 -113 0 -62 -172 c-33 -95 -65 -173 -71 -173 -5
0 -37 73 -69 163 -33 89 -64 168 -69 175 -13 17 -216 17 -222 -1z m193 -40 c8
-10 113 -283 147 -385 3 -8 12 -12 21 -10 11 2 33 52 69 153 29 83 61 173 72
200 l19 50 79 0 80 0 0 -330 0 -330 -65 0 -65 0 -3 100 c-1 55 4 154 11 220 8
66 11 124 6 129 -18 19 -37 -6 -64 -86 -15 -45 -49 -132 -74 -193 -41 -98 -49
-110 -71 -110 -22 0 -30 12 -68 105 -24 58 -58 146 -75 195 -21 59 -37 90 -47
90 -13 0 -14 -14 -10 -90 3 -49 5 -151 5 -225 l0 -135 -60 0 -60 0 -3 320 c-1
176 0 325 3 332 6 18 139 18 153 0z"/>
<path d="M5427 4893 c-4 -7 -102 -326 -194 -631 -14 -45 -22 -89 -19 -97 7
-20 200 -22 213 -3 4 7 15 40 24 73 l15 60 84 0 85 0 16 -62 c10 -34 20 -67
24 -72 4 -7 48 -11 111 -11 82 0 106 3 110 14 5 12 -173 625 -206 712 -9 24
-12 24 -134 24 -69 0 -127 -3 -129 -7z m233 -55 c25 -57 190 -623 186 -635 -4
-10 -23 -13 -73 -11 l-68 3 -13 45 c-30 107 -13 95 -142 95 l-115 0 -15 -70
-15 -70 -68 -3 c-51 -2 -69 1 -73 11 -3 8 18 90 46 183 119 388 140 457 146
465 3 5 48 9 100 9 88 0 95 -1 104 -22z"/>
<path d="M5536 4752 c-9 -15 -59 -237 -60 -267 l-1 -30 73 -3 c60 -2 73 0 79
14 6 16 -42 243 -59 277 -9 18 -24 22 -32 9z m37 -184 c9 -34 14 -66 11 -70
-8 -12 -52 -10 -60 3 -8 13 15 129 26 129 4 0 15 -28 23 -62z"/>
<path d="M5824 4887 c-3 -8 -4 -49 -2 -93 l3 -79 90 -5 90 -5 5 -275 5 -275
99 -3 c55 -1 103 1 109 7 5 5 8 115 8 260 -1 160 2 258 9 270 9 17 23 21 93
23 l82 3 0 90 0 90 -293 3 c-239 2 -293 0 -298 -11z m561 -49 c2 -13 1 -39 -3
-58 l-8 -35 -84 -5 -85 -5 -5 -270 -5 -270 -70 0 -70 0 -5 270 -5 270 -90 5
-90 5 -3 44 c-6 75 -21 71 262 71 l256 0 5 -22z"/>
<path d="M6495 4888 c-3 -7 -4 -175 -3 -373 l3 -360 110 0 110 0 0 370 0 370
-108 3 c-80 2 -109 -1 -112 -10z m180 -363 l0 -330 -70 0 -70 0 -3 320 c-1
176 0 326 3 333 3 9 24 12 72 10 l68 -3 0 -330z"/>
<path d="M1098 4014 c-58 -31 -67 -113 -19 -166 74 -83 210 -4 180 105 -18 67
-97 96 -161 61z m111 -50 c27 -35 26 -59 -4 -89 -63 -63 -160 18 -105 88 29
37 80 37 109 1z"/>
<path d="M1325 4005 l-25 -24 0 -439 c0 -418 1 -441 19 -463 l19 -24 324 -5
323 -5 3 -119 c1 -66 -1 -123 -6 -128 -6 -6 -31 21 -63 68 -68 99 -92 110
-151 68 -72 -50 -72 -67 1 -178 73 -111 88 -126 97 -102 4 11 -15 48 -55 107
-33 50 -61 94 -61 98 0 4 14 20 30 36 39 37 48 32 118 -66 62 -85 75 -95 108
-80 l24 11 0 378 c0 281 3 381 12 390 16 16 73 15 87 -1 7 -9 12 -107 13 -293
3 -240 5 -279 18 -279 12 0 16 24 20 140 l5 140 41 3 c25 2 45 -2 52 -11 7 -8
13 -65 14 -140 3 -145 20 -176 28 -51 6 90 18 114 59 114 45 0 51 -16 51 -126
0 -73 4 -105 13 -113 21 -17 27 -3 27 59 0 64 11 80 56 80 54 0 57 -12 51
-192 -4 -90 -7 -174 -9 -187 -4 -35 20 -38 33 -4 6 15 14 106 17 201 5 165 6
174 27 188 44 28 45 44 45 489 l0 423 -26 31 -26 31 -644 0 -645 0 -24 -25z
m1313 -27 c9 -9 12 -120 12 -439 0 -377 -2 -428 -16 -440 -19 -15 -153 -19
-154 -4 0 6 10 11 24 13 13 2 29 9 35 16 8 9 10 139 9 422 l-3 409 -555 0
-555 0 -3 -409 c-1 -291 1 -413 9 -422 9 -11 68 -14 275 -16 145 -2 264 -7
264 -12 0 -5 -134 -10 -297 -11 -242 -2 -302 0 -320 11 l-23 14 0 428 c0 320
3 431 12 440 17 17 1269 17 1286 0z m-123 -438 l0 -385 -23 -3 c-13 -2 -31 3
-40 12 -10 8 -41 16 -72 18 -54 3 -55 4 -58 35 -4 42 -24 57 -86 63 l-51 5
-10 127 c-12 152 -19 164 -96 161 -87 -2 -88 -5 -91 -227 l-3 -191 -255 0
-255 0 -3 375 c-1 206 0 381 3 388 3 10 113 12 522 10 l518 -3 0 -385z"/>
<path d="M1375 3608 c-10 -24 -1 -153 10 -153 13 0 19 145 6 158 -7 7 -12 5
-16 -5z"/>
<path d="M1574 3887 c-2 -7 -3 -76 -2 -152 3 -117 6 -140 18 -140 12 0 16 17
18 83 3 77 12 102 26 67 3 -8 12 -15 21 -15 9 0 18 7 21 15 14 35 23 10 26
-67 2 -66 6 -83 18 -83 13 0 15 23 15 149 0 169 -9 188 -50 107 -14 -28 -27
-51 -29 -51 -2 0 -18 23 -35 50 -33 53 -39 58 -47 37z"/>
<path d="M1812 3857 l-43 -43 3 -110 c2 -89 6 -109 18 -109 11 0 16 16 20 60
l5 60 45 0 45 0 5 -58 c3 -31 10 -57 15 -57 6 0 10 56 10 148 l0 147 -40 3
c-36 3 -45 -2 -83 -41z m93 -47 l0 -45 -45 0 c-36 0 -45 4 -48 18 -5 26 47 79
73 75 17 -3 20 -10 20 -48z"/>
<path d="M1975 3890 c-10 -15 4 -28 35 -32 25 -3 25 -3 30 -133 4 -107 8 -130
20 -130 12 0 16 23 20 130 l5 130 30 5 c18 3 30 11 30 20 0 12 -17 16 -82 18
-52 2 -84 -1 -88 -8z"/>
<path d="M2185 3888 c-3 -8 -4 -77 -3 -153 3 -117 6 -140 18 -140 11 0 16 16
20 60 l5 60 40 0 40 0 5 -60 c4 -44 9 -60 20 -60 13 0 15 23 15 150 0 127 -2
150 -15 150 -11 0 -16 -16 -20 -65 l-5 -65 -40 0 -40 0 -3 57 c-3 57 -25 97
-37 66z"/>
<path d="M2895 4018 c-2 -7 -6 -35 -7 -63 -3 -47 -5 -50 -33 -55 l-30 -5 0
-625 0 -625 690 0 690 0 0 625 0 625 -30 5 c-29 5 -30 8 -35 65 l-5 60 -245 3
c-135 2 -259 0 -277 -3 -18 -3 -47 -18 -64 -32 -25 -22 -34 -24 -48 -15 -74
55 -57 52 -339 52 -201 0 -264 -3 -267 -12z m552 -45 c53 -35 53 -38 53 -636
0 -305 -3 -557 -7 -560 -3 -4 -15 1 -25 10 -24 22 -225 37 -400 30 -70 -3
-130 -2 -132 2 -9 13 -11 1145 -3 1159 6 9 67 12 248 12 209 0 243 -2 266 -17z
m658 -573 l0 -585 -245 -1 c-213 0 -249 -3 -278 -18 -19 -10 -36 -16 -38 -14
-3 3 -8 1008 -5 1107 1 24 11 43 35 67 l34 34 249 -2 248 -3 0 -585z m-1213
-85 l3 -530 260 -5 c240 -5 285 -9 285 -28 0 -4 -123 -7 -272 -7 -236 0 -273
-2 -273 -15 0 -13 40 -16 280 -21 154 -3 281 -6 283 -7 1 -1 2 -7 2 -12 0 -7
-101 -9 -297 -8 l-298 3 -3 575 c-1 316 0 581 3 589 20 51 25 -50 27 -534z
m1276 -51 l-3 -579 -292 -3 c-193 -1 -293 1 -293 8 0 5 1 11 3 12 1 1 126 4
277 7 235 5 275 8 275 21 0 13 -37 15 -273 15 -149 0 -272 3 -272 7 0 19 45
23 285 28 l260 5 2 525 c2 289 5 531 8 539 21 55 25 -50 23 -585z"/>
<path d="M3087 3868 c-8 -18 -20 -51 -27 -73 -19 -59 -26 -62 -49 -16 -21 41
-34 50 -46 31 -9 -14 60 -145 76 -145 8 0 27 36 45 89 18 48 36 92 41 97 5 5
67 10 138 11 108 3 130 6 130 18 0 13 -24 15 -147 18 l-148 3 -13 -33z"/>
<path d="M3164 3817 c-3 -8 -4 -45 -2 -83 l3 -69 45 0 45 0 0 45 c0 38 -3 45
-23 50 -13 3 -23 10 -23 15 0 6 10 12 23 15 13 3 23 12 23 20 0 21 -83 27 -91
7z m60 -118 c-3 -5 -10 -7 -15 -3 -5 3 -7 10 -3 15 3 5 10 7 15 3 5 -3 7 -10
3 -15z"/>
<path d="M3302 3818 c-16 -16 -15 -73 1 -86 6 -5 21 -11 32 -13 11 -3 22 -15
25 -29 3 -14 12 -25 20 -25 12 0 15 17 15 80 0 64 -3 80 -15 80 -9 0 -17 -12
-20 -30 -6 -36 -24 -39 -28 -5 -5 33 -15 43 -30 28z"/>
<path d="M2965 3549 c-15 -23 15 -30 121 -27 89 2 109 6 109 18 0 12 -20 16
-112 18 -74 2 -114 -1 -118 -9z"/>
<path d="M3235 3549 c-15 -23 15 -30 121 -27 89 2 109 6 109 18 0 12 -20 16
-112 18 -74 2 -114 -1 -118 -9z"/>
<path d="M2965 3480 c-12 -19 10 -32 51 -28 27 2 39 8 39 18 0 19 -79 27 -90
10z"/>
<path d="M3096 3481 c-16 -25 27 -31 195 -29 147 3 174 5 174 18 0 13 -28 15
-182 18 -101 1 -184 -2 -187 -7z"/>
<path d="M2965 3410 c-3 -5 0 -12 7 -15 25 -10 283 0 283 10 0 14 -281 19
-290 5z"/>
<path d="M2965 3209 c-15 -24 17 -29 151 -27 116 3 139 6 139 18 0 12 -24 15
-142 18 -96 2 -144 -1 -148 -9z"/>
<path d="M3295 3210 c-14 -23 13 -31 91 -28 62 2 79 6 79 18 0 12 -17 16 -82
18 -52 2 -84 -1 -88 -8z"/>
<path d="M2965 3140 c-12 -19 10 -32 51 -28 27 2 39 8 39 18 0 19 -79 27 -90
10z"/>
<path d="M3097 3143 c-4 -3 -2 -12 4 -20 16 -19 342 -19 358 0 6 8 8 17 4 20
-8 9 -358 9 -366 0z"/>
<path d="M3007 3081 c-21 -3 -38 -10 -37 -16 0 -11 323 -20 350 -10 13 6 13 8
-2 19 -19 14 -240 19 -311 7z"/>
<path d="M3392 3082 c-13 -4 -24 -11 -25 -17 -2 -12 68 -19 92 -10 14 6 14 8
-3 21 -21 15 -28 16 -64 6z"/>
<path d="M2965 3009 c-15 -23 15 -30 121 -27 89 2 109 6 109 18 0 12 -20 16
-112 18 -74 2 -114 -1 -118 -9z"/>
<path d="M3235 3009 c-15 -23 15 -30 121 -27 89 2 109 6 109 18 0 12 -20 16
-112 18 -74 2 -114 -1 -118 -9z"/>
<path d="M2965 2940 c-14 -22 13 -31 86 -28 58 2 74 6 74 18 0 12 -16 16 -77
18 -49 2 -79 -1 -83 -8z"/>
<path d="M3165 2939 c-15 -24 17 -29 156 -27 120 3 144 5 144 18 0 13 -24 15
-147 18 -100 2 -149 -1 -153 -9z"/>
<path d="M3575 3890 c-12 -19 10 -32 51 -28 27 2 39 8 39 18 0 19 -79 27 -90
10z"/>
<path d="M3705 3889 c-16 -24 18 -29 186 -27 147 3 174 5 174 18 0 13 -28 15
-177 18 -121 2 -179 -1 -183 -9z"/>
<path d="M3575 3819 c-15 -23 15 -30 121 -27 89 2 109 6 109 18 0 12 -20 16
-112 18 -74 2 -114 -1 -118 -9z"/>
<path d="M3845 3819 c-15 -23 15 -30 121 -27 89 2 109 6 109 18 0 12 -20 16
-112 18 -74 2 -114 -1 -118 -9z"/>
<path d="M3575 3750 c-14 -22 13 -31 86 -28 58 2 74 6 74 18 0 12 -16 16 -77
18 -49 2 -79 -1 -83 -8z"/>
<path d="M3775 3749 c-15 -24 17 -29 151 -27 116 3 139 6 139 18 0 12 -24 15
-142 18 -96 2 -144 -1 -148 -9z"/>
<path d="M3575 3680 c-3 -6 0 -12 7 -15 25 -10 348 0 351 10 3 14 -349 19
-358 5z"/>
<path d="M3975 3680 c-3 -5 0 -13 8 -16 23 -8 82 0 82 11 0 14 -82 19 -90 5z"/>
<path d="M3575 3620 c-14 -22 13 -31 86 -28 58 2 74 6 74 18 0 12 -16 16 -77
18 -49 2 -79 -1 -83 -8z"/>
<path d="M3775 3620 c-14 -22 13 -31 86 -28 58 2 74 6 74 18 0 12 -16 16 -77
18 -49 2 -79 -1 -83 -8z"/>
<path d="M3575 3479 c-15 -24 17 -29 151 -27 116 3 139 6 139 18 0 12 -24 15
-142 18 -96 2 -144 -1 -148 -9z"/>
<path d="M3905 3480 c-14 -23 13 -31 91 -28 62 2 79 6 79 18 0 12 -17 16 -82
18 -52 2 -84 -1 -88 -8z"/>
<path d="M3575 3410 c-3 -5 0 -13 8 -16 23 -9 152 0 152 11 0 14 -151 19 -160
5z"/>
<path d="M3775 3410 c-3 -5 0 -12 7 -15 25 -10 283 0 283 10 0 14 -281 19
-290 5z"/>
<path d="M3575 3350 c-15 -24 12 -30 144 -30 76 0 141 3 144 7 4 3 2 12 -4 20
-14 16 -274 19 -284 3z"/>
<path d="M3910 3346 c-18 -22 2 -28 86 -24 53 2 69 6 69 18 0 22 -137 27 -155
6z"/>
<path d="M3575 3280 c-14 -22 13 -31 86 -28 58 2 74 6 74 18 0 12 -16 16 -77
18 -49 2 -79 -1 -83 -8z"/>
<path d="M3702 3133 c-5 -10 -17 -42 -26 -70 -10 -29 -22 -55 -26 -58 -5 -3
-18 12 -30 35 -21 41 -37 50 -46 26 -7 -19 64 -158 79 -153 7 2 26 41 42 88
17 46 34 90 38 97 6 8 44 12 131 12 91 0 126 4 135 13 6 8 8 17 4 20 -3 4 -71
7 -149 7 -126 0 -144 -2 -152 -17z"/>
<path d="M3915 3076 c-12 -8 -15 -24 -13 -51 3 -36 6 -40 33 -45 38 -7 38 -23
-1 -30 -17 -3 -29 -11 -29 -20 0 -11 12 -15 50 -15 l50 0 3 74 c2 44 -1 78 -8
85 -15 15 -66 16 -85 2z m49 -47 c-3 -5 -10 -7 -15 -3 -5 3 -7 10 -3 15 3 5
10 7 15 3 5 -3 7 -10 3 -15z"/>
<path d="M3774 3067 c-3 -8 -4 -30 -2 -49 3 -28 8 -34 33 -38 24 -4 31 -11 35
-35 9 -55 25 -30 28 44 3 81 -9 111 -29 68 -15 -33 -27 -34 -31 -5 -4 26 -26
36 -34 15z"/>
<path d="M4427 4012 c-8 -9 -17 -37 -19 -62 -2 -37 -8 -47 -30 -58 -19 -9 -29
-23 -33 -45 -3 -18 -5 -144 -3 -282 3 -214 5 -250 18 -250 13 0 16 39 20 268
3 168 9 267 15 267 6 0 12 -192 15 -547 5 -519 6 -551 25 -597 24 -60 44 -74
78 -59 18 8 31 29 46 74 20 61 21 78 21 674 0 462 -3 614 -12 623 -19 19 -122
15 -141 -6z m108 -67 l0 -40 -40 0 c-36 0 -40 2 -43 28 -6 47 4 59 45 55 37
-3 38 -4 38 -43z m-60 -546 c0 -397 -2 -454 -15 -454 -13 0 -15 57 -18 445 -1
245 0 451 3 458 3 8 11 12 18 9 9 -3 12 -103 12 -458z m70 0 c0 -397 -2 -454
-15 -454 -13 0 -15 57 -18 445 -1 245 0 451 3 458 3 8 11 12 18 9 9 -3 12
-103 12 -458z m-7 -555 c3 -62 -23 -159 -43 -159 -28 0 -62 195 -38 219 4 4
23 6 43 4 l35 -3 3 -61z"/>
<path d="M4832 3957 l-72 -73 2 -484 3 -485 690 0 690 0 0 555 0 555 -620 3
-620 2 -73 -73z m593 -487 l0 -515 -310 0 -310 0 -5 180 c-3 99 -3 302 0 450
l5 270 60 5 60 5 3 50 c1 28 5 56 7 63 4 10 58 12 247 10 l243 -3 0 -515z
m680 0 l0 -515 -315 0 -315 0 -3 505 c-1 278 0 511 3 518 3 10 72 12 317 10
l313 -3 0 -515z m-1207 458 c-3 -29 -7 -33 -35 -36 -40 -4 -41 3 -6 40 35 36
45 35 41 -4z"/>
<path d="M5103 3888 c-4 -7 -17 -39 -29 -72 -11 -33 -25 -61 -32 -64 -6 -2
-20 15 -32 37 -20 40 -33 50 -44 32 -3 -5 10 -43 29 -86 47 -102 59 -98 100
25 l32 95 134 5 c110 4 134 8 134 20 0 12 -24 15 -142 18 -105 2 -144 -1 -150
-10z"/>
<path d="M4895 3818 c-3 -7 -4 -198 -3 -423 3 -357 5 -410 18 -410 13 0 15 53
15 419 0 327 -3 420 -12 423 -7 3 -15 -1 -18 -9z"/>
<path d="M5164 3819 c-3 -6 6 -23 20 -38 31 -33 32 -35 5 -73 -16 -22 -19 -32
-10 -41 8 -8 19 -3 41 18 l30 29 28 -27 c51 -49 80 -27 31 23 l-32 31 28 29
c32 33 29 68 -4 51 -10 -6 -21 -17 -25 -26 -8 -21 -24 -19 -58 10 -33 28 -43
30 -54 14z"/>
<path d="M4965 3549 c-15 -24 17 -29 156 -27 120 3 144 5 144 18 0 13 -24 15
-147 18 -100 2 -149 -1 -153 -9z"/>
<path d="M5305 3550 c-12 -19 10 -32 51 -28 27 2 39 8 39 18 0 19 -79 27 -90
10z"/>
<path d="M4965 3480 c-14 -22 13 -31 86 -28 58 2 74 6 74 18 0 12 -16 16 -77
18 -49 2 -79 -1 -83 -8z"/>
<path d="M5165 3479 c-15 -23 15 -30 121 -27 89 2 109 6 109 18 0 12 -20 16
-112 18 -74 2 -114 -1 -118 -9z"/>
<path d="M4965 3409 c-15 -24 17 -29 156 -27 120 3 144 5 144 18 0 13 -24 15
-147 18 -100 2 -149 -1 -153 -9z"/>
<path d="M4965 3280 c-14 -22 13 -31 86 -28 58 2 74 6 74 18 0 12 -16 16 -77
18 -49 2 -79 -1 -83 -8z"/>
<path d="M5165 3279 c-15 -23 15 -30 121 -27 89 2 109 6 109 18 0 12 -20 16
-112 18 -74 2 -114 -1 -118 -9z"/>
<path d="M4965 3209 c-15 -24 17 -29 156 -27 120 3 144 5 144 18 0 13 -24 15
-147 18 -100 2 -149 -1 -153 -9z"/>
<path d="M5305 3210 c-12 -19 10 -32 51 -28 27 2 39 8 39 18 0 19 -79 27 -90
10z"/>
<path d="M4965 3139 c-16 -25 19 -29 221 -27 178 3 209 5 209 18 0 13 -31 15
-212 18 -147 2 -214 -1 -218 -9z"/>
<path d="M4970 3075 c-19 -22 1 -26 121 -23 84 2 104 6 104 18 0 22 -206 27
-225 5z"/>
<path d="M5983 3948 c-7 -8 -10 -179 -9 -488 1 -415 3 -475 16 -475 13 0 15
61 18 479 1 264 -2 484 -6 488 -5 5 -13 3 -19 -4z"/>
<path d="M5505 3889 c-15 -23 15 -30 121 -27 89 2 109 6 109 18 0 12 -20 16
-112 18 -74 2 -114 -1 -118 -9z"/>
<path d="M5775 3890 c-14 -22 13 -31 86 -28 58 2 74 6 74 18 0 12 -16 16 -77
18 -49 2 -79 -1 -83 -8z"/>
<path d="M5505 3820 c-12 -20 11 -31 56 -28 31 2 44 7 44 18 0 19 -89 27 -100
10z"/>
<path d="M5645 3819 c-15 -24 17 -29 156 -27 120 3 144 5 144 18 0 13 -24 15
-147 18 -100 2 -149 -1 -153 -9z"/>
<path d="M5505 3749 c-15 -23 15 -30 121 -27 89 2 109 6 109 18 0 12 -20 16
-112 18 -74 2 -114 -1 -118 -9z"/>
<path d="M5505 3619 c-15 -23 15 -30 121 -27 89 2 109 6 109 18 0 12 -20 16
-112 18 -74 2 -114 -1 -118 -9z"/>
<path d="M5775 3620 c-14 -22 13 -31 86 -28 58 2 74 6 74 18 0 12 -16 16 -77
18 -49 2 -79 -1 -83 -8z"/>
<path d="M5505 3550 c-12 -20 11 -31 56 -28 31 2 44 7 44 18 0 19 -89 27 -100
10z"/>
<path d="M5645 3549 c-15 -24 17 -29 156 -27 120 3 144 5 144 18 0 13 -24 15
-147 18 -100 2 -149 -1 -153 -9z"/>
<path d="M5505 3479 c-15 -24 17 -29 156 -27 120 3 144 5 144 18 0 13 -24 15
-147 18 -100 2 -149 -1 -153 -9z"/>
<path d="M5845 3480 c-12 -19 10 -32 51 -28 27 2 39 8 39 18 0 19 -79 27 -90
10z"/>
<path d="M5506 3411 c-12 -18 34 -32 97 -29 47 2 62 7 62 18 0 12 -16 16 -77
18 -43 2 -79 -2 -82 -7z"/>
<path d="M5643 3278 c-4 -7 -17 -39 -29 -72 -11 -33 -25 -61 -31 -63 -6 -2
-16 10 -23 26 -16 40 -37 58 -51 44 -14 -14 60 -158 81 -158 10 0 25 30 45 87
17 48 35 92 40 97 6 6 67 12 135 13 103 3 125 6 125 18 0 12 -24 15 -142 18
-105 2 -144 -1 -150 -10z"/>
<path d="M5713 3208 c-6 -7 -10 -44 -10 -83 2 -55 5 -70 17 -70 12 0 16 16 18
74 3 75 -6 103 -25 79z"/>
<path d="M5775 3210 c-9 -15 4 -27 33 -32 33 -4 31 -22 -4 -28 -27 -5 -29 -8
-29 -50 l0 -45 48 0 c52 0 67 17 21 25 -38 7 -37 23 1 30 29 5 30 7 30 55 l0
50 -47 3 c-27 2 -49 -2 -53 -8z"/>
<path d="M6555 4018 c-62 -34 -75 -116 -26 -170 25 -28 36 -33 75 -33 81 0
132 76 102 150 -23 54 -100 82 -151 53z m104 -54 c27 -35 26 -59 -4 -89 -46
-47 -115 -19 -115 47 0 67 78 94 119 42z"/>
<path d="M6995 3990 c-31 -32 -36 -43 -27 -52 10 -10 17 -10 31 -1 10 7 22 9
25 6 10 -11 7 -801 -3 -808 -6 -3 -151 136 -324 310 -172 173 -319 315 -325
315 -40 0 4 -51 297 -344 177 -177 319 -325 315 -329 -4 -3 -142 -6 -307 -7
-184 0 -304 -3 -311 -10 -6 -6 -4 -11 5 -15 8 -3 158 -6 334 -7 l320 -3 5 -65
c4 -49 9 -65 20 -65 11 0 16 16 20 65 l5 65 285 3 c157 1 291 0 299 -3 11 -4
10 -9 -4 -25 -14 -16 -16 -23 -7 -32 9 -9 21 -3 52 27 22 21 40 44 40 50 0 6
-18 29 -40 50 -31 30 -43 36 -52 27 -9 -9 -8 -16 5 -30 9 -10 14 -22 10 -25
-9 -10 -551 -9 -557 1 -3 5 139 152 314 327 176 175 320 322 320 326 0 36 -58
-14 -339 -295 -174 -174 -320 -314 -324 -310 -9 9 -9 798 0 807 3 4 12 2 20
-5 10 -8 17 -8 25 0 9 9 3 22 -27 52 -21 22 -44 40 -50 40 -6 0 -29 -18 -50
-40z"/>
<path d="M7840 4017 c-34 -17 -62 -74 -54 -112 3 -16 19 -43 35 -60 24 -25 37
-30 75 -30 39 0 50 5 75 33 31 35 39 94 19 133 -23 42 -100 61 -150 36z m105
-47 c26 -29 24 -79 -4 -102 -32 -25 -67 -23 -96 7 -30 30 -31 54 -4 89 26 33
77 36 104 6z"/>
<path d="M7684 3466 c-46 -46 -48 -101 -5 -148 26 -29 35 -33 80 -33 42 0 55
5 78 28 23 23 28 36 28 78 0 45 -4 54 -33 80 -47 43 -102 41 -148 -5z m123
-28 c13 -12 23 -33 23 -47 0 -33 -37 -71 -69 -71 -34 0 -71 37 -71 72 0 60 71
89 117 46z"/>
<path d="M1484 2986 c-43 -19 -64 -53 -64 -104 0 -63 40 -102 105 -102 65 0
105 39 105 102 0 52 -21 85 -66 104 -40 17 -41 17 -80 0z m75 -41 c63 -32 41
-117 -31 -123 -69 -6 -100 77 -45 120 27 22 40 22 76 3z"/>
<path d="M6683 2903 c-39 -8 -73 -59 -73 -110 0 -36 6 -50 29 -74 24 -24 38
-29 76 -29 65 0 105 39 105 102 0 24 -7 54 -16 67 -15 21 -73 53 -91 50 -4 -1
-18 -4 -30 -6z m78 -62 c37 -37 37 -55 -1 -92 -35 -35 -61 -33 -98 8 -27 30
-23 68 10 96 29 25 55 21 89 -12z"/>
<path d="M7390 2837 c-14 -7 -33 -29 -43 -50 -15 -30 -17 -43 -8 -70 18 -54
55 -82 108 -82 38 0 49 5 74 33 31 35 39 94 19 133 -23 42 -100 61 -150 36z
m102 -44 c25 -29 29 -53 13 -82 -24 -48 -72 -55 -110 -16 -30 30 -31 54 -4 89
25 31 77 36 101 9z"/>
<path d="M5075 2736 c-14 -21 -16 -81 -13 -509 2 -390 6 -487 17 -500 11 -15
46 -17 265 -19 l251 -3 0 -110 0 -110 -87 -5 c-48 -3 -92 -10 -98 -16 -6 -6
-10 -29 -8 -50 l3 -39 355 0 355 0 3 41 c2 25 -2 45 -11 52 -7 6 -53 12 -103
14 l-89 3 0 110 0 110 254 3 c167 1 259 6 268 13 18 16 19 1009 1 1027 -9 9
-174 12 -680 12 l-668 0 -15 -24z m1340 -501 l0 -480 -655 0 -655 0 -3 470
c-1 259 0 476 3 483 3 10 140 12 657 10 l653 -3 0 -480z m-743 -565 c4 -35 32
-32 38 5 5 28 8 30 50 30 42 0 45 -2 50 -30 3 -17 11 -30 20 -30 9 0 17 13 20
30 3 17 10 29 15 28 6 -2 10 -48 10 -110 l0 -108 -115 0 -115 0 -3 99 c-1 55
0 106 3 114 7 20 22 4 27 -28z m398 -245 c0 -10 -592 -20 -618 -10 -7 3 -10 9
-7 15 9 14 625 9 625 -5z"/>
<path d="M5135 2678 c-3 -7 -4 -182 -3 -388 l3 -375 625 0 625 0 0 385 0 385
-623 3 c-494 2 -624 0 -627 -10z m605 -53 l5 -30 80 0 80 0 5 29 c3 17 10 30
15 30 6 0 12 -13 15 -30 l5 -29 85 0 85 0 5 29 c7 39 23 39 30 1 l5 -30 80 0
80 0 5 29 c7 44 25 32 25 -16 l0 -43 -585 0 -585 0 -3 33 c-6 65 -20 63 285
60 l278 -3 5 -30z m135 15 c0 -18 -72 -27 -87 -12 -19 19 3 33 45 30 29 -2 42
-8 42 -18z m200 0 c0 -18 -72 -27 -87 -12 -19 19 3 33 45 30 29 -2 42 -8 42
-18z m200 0 c0 -18 -72 -27 -87 -12 -19 19 3 33 45 30 29 -2 42 -8 42 -18z
m70 -405 l0 -280 -585 0 -585 0 -3 270 c-1 148 0 275 3 282 3 11 123 13 587
11 l583 -3 0 -280z"/>
<path d="M5275 2410 c-8 -13 9 -19 70 -22 l50 -3 0 -45 0 -45 -60 -5 -60 -5 0
-80 0 -80 78 0 c88 0 110 18 27 23 -30 2 -58 6 -62 10 -3 4 -8 25 -10 47 l-3
40 65 5 65 5 0 80 0 80 -77 3 c-45 2 -79 -1 -83 -8z"/>
<path d="M5675 2410 c-8 -14 9 -19 75 -22 l55 -3 0 -45 0 -45 -65 -5 -65 -5 0
-80 0 -80 78 0 c91 0 105 18 20 25 l-58 5 0 45 0 45 65 5 65 5 0 80 0 80 -82
3 c-49 2 -84 -1 -88 -8z"/>
<path d="M6114 2349 c-19 -39 -33 -77 -30 -85 3 -8 26 -14 63 -16 l58 -3 5
-60 c4 -44 9 -60 20 -60 13 0 15 23 15 145 0 122 -2 145 -15 145 -11 0 -16
-16 -20 -60 -4 -54 -7 -60 -29 -63 -38 -6 -45 11 -21 58 21 41 21 70 0 70 -5
0 -26 -32 -46 -71z"/>
<path d="M5545 2337 c-3 -9 -7 -23 -9 -31 -3 -8 -17 -16 -33 -18 -38 -4 -37
-31 2 -38 20 -3 31 -12 33 -25 7 -42 11 -48 27 -35 7 6 15 21 17 33 2 13 13
23 28 27 35 8 32 34 -5 40 -19 3 -31 12 -33 25 -6 29 -20 41 -27 22z"/>
<path d="M5885 2310 c-15 -24 9 -32 75 -28 71 5 94 13 85 29 -8 12 -152 12
-160 -1z"/>
<path d="M5885 2250 c-13 -21 9 -30 79 -30 78 0 92 5 75 27 -14 16 -144 18
-154 3z"/>
<path d="M5205 2009 c-4 -6 -3 -15 2 -20 5 -5 233 -8 559 -7 480 3 549 5 549
18 0 13 -69 15 -552 18 -392 1 -554 -1 -558 -9z"/>
<path d="M4748 2711 c-88 -79 7 -223 116 -177 62 26 84 92 51 156 -19 37 -43
50 -94 50 -31 0 -49 -7 -73 -29z m125 -29 c27 -24 19 -80 -14 -105 -22 -15
-33 -17 -55 -10 -61 20 -70 98 -16 127 30 16 57 12 85 -12z"/>
<path d="M6768 2565 c-3 -4 -16 -60 -29 -126 -13 -66 -27 -118 -33 -116 -5 2
-17 24 -25 50 -25 74 -35 77 -81 32 -22 -21 -40 -43 -40 -47 0 -18 32 -19 51
-2 25 23 31 15 59 -71 41 -128 54 -116 94 88 16 81 34 151 40 157 8 5 104 11
234 12 140 2 222 7 222 13 0 11 -482 20 -492 10z"/>
<path d="M3405 2548 c-3 -7 -4 -319 -3 -693 l3 -680 450 0 450 0 0 690 0 690
-448 3 c-353 2 -449 0 -452 -10z m860 -678 l0 -655 -415 0 -415 0 -3 645 c-1
355 0 651 3 658 3 10 92 12 417 10 l413 -3 0 -655z"/>
<path d="M3471 2486 c-8 -9 -11 -49 -9 -117 l3 -104 385 0 385 0 0 115 0 115
-376 3 c-314 2 -378 0 -388 -12z m734 -111 l0 -80 -350 0 -350 0 -3 69 c-2 38
-1 75 2 83 5 11 67 13 353 11 l348 -3 0 -80z"/>
<path d="M3475 2220 c-15 -24 12 -30 145 -30 138 0 178 10 125 30 -34 13 -262
13 -270 0z"/>
<path d="M3874 2216 c-3 -8 -4 -31 -2 -52 l3 -39 180 0 180 0 0 50 0 50 -178
3 c-146 2 -178 0 -183 -12z m331 -41 c0 -10 -258 -20 -283 -10 -7 3 -10 10 -7
15 9 14 290 9 290 -5z"/>
<path d="M3475 2149 c-15 -24 17 -29 151 -27 116 3 139 6 139 18 0 12 -24 15
-142 18 -96 2 -144 -1 -148 -9z"/>
<path d="M3464 2077 c-3 -8 -4 -45 -2 -83 l3 -69 85 0 85 0 0 80 0 80 -83 3
c-63 2 -84 0 -88 -11z m131 -77 l0 -45 -45 0 c-44 0 -45 1 -48 33 -5 54 2 64
50 60 l43 -3 0 -45z"/>
<path d="M3674 2077 c-3 -8 -4 -45 -2 -83 l3 -69 80 0 80 0 0 80 0 80 -78 3
c-59 2 -79 0 -83 -11z m121 -72 l0 -40 -45 0 c-42 0 -45 2 -48 28 -6 49 3 58
50 55 43 -3 43 -3 43 -43z"/>
<path d="M3874 2077 c-3 -8 -4 -45 -2 -83 l3 -69 80 0 80 0 0 80 0 80 -78 3
c-59 2 -79 0 -83 -11z m121 -72 l0 -40 -40 0 c-36 0 -40 2 -43 28 -6 47 4 59
45 55 37 -3 38 -4 38 -43z"/>
<path d="M4074 2077 c-3 -8 -4 -45 -2 -83 l3 -69 80 0 80 0 0 80 0 80 -78 3
c-59 2 -79 0 -83 -11z m131 -72 l0 -40 -45 0 c-42 0 -45 2 -48 28 -6 49 3 58
50 55 43 -3 43 -3 43 -43z"/>
<path d="M3464 1807 c-3 -8 -4 -45 -2 -83 l3 -69 85 0 85 0 0 80 0 80 -83 3
c-63 2 -84 0 -88 -11z m131 -77 l0 -45 -45 0 c-44 0 -45 1 -48 33 -5 54 2 64
50 60 l43 -3 0 -45z"/>
<path d="M3674 1807 c-3 -8 -4 -45 -2 -83 l3 -69 80 0 80 0 0 80 0 80 -78 3
c-59 2 -79 0 -83 -11z m121 -77 l0 -45 -45 0 c-44 0 -45 1 -48 33 -5 54 2 64
50 60 l43 -3 0 -45z"/>
<path d="M3874 1807 c-3 -8 -4 -45 -2 -83 l3 -69 80 0 80 0 0 80 0 80 -78 3
c-59 2 -79 0 -83 -11z m121 -77 l0 -45 -40 0 c-38 0 -40 2 -43 33 -5 53 3 64
45 60 38 -3 38 -3 38 -48z"/>
<path d="M4074 1807 c-3 -8 -4 -45 -2 -83 l3 -69 80 0 80 0 0 80 0 80 -78 3
c-59 2 -79 0 -83 -11z m131 -77 l0 -45 -45 0 c-44 0 -45 1 -48 33 -5 54 2 64
50 60 l43 -3 0 -45z"/>
<path d="M3472 1608 c-17 -17 -16 -142 2 -157 9 -7 42 -11 88 -9 l73 3 0 85 0
85 -75 3 c-50 2 -79 -1 -88 -10z m123 -78 l0 -45 -45 0 c-44 0 -45 1 -48 33
-5 54 2 64 50 60 l43 -3 0 -45z"/>
<path d="M3674 1607 c-3 -8 -4 -47 -2 -88 l3 -74 80 0 80 0 0 85 0 85 -78 3
c-59 2 -79 0 -83 -11z m121 -77 l0 -45 -45 0 c-44 0 -45 1 -48 33 -5 54 2 64
50 60 l43 -3 0 -45z"/>
<path d="M3874 1607 c-3 -8 -4 -47 -2 -88 l3 -74 80 0 80 0 0 85 0 85 -78 3
c-59 2 -79 0 -83 -11z m121 -77 l0 -45 -40 0 c-38 0 -40 2 -43 33 -5 53 3 64
45 60 38 -3 38 -3 38 -48z"/>
<path d="M4075 1608 c-3 -8 -4 -92 -3 -188 l3 -175 80 0 80 0 0 185 0 185 -78
3 c-57 2 -79 -1 -82 -10z m130 -178 l0 -145 -45 0 -45 0 -3 134 c-1 74 0 141
3 149 3 9 18 12 47 10 l43 -3 0 -145z"/>
<path d="M3464 1397 c-3 -8 -4 -45 -2 -83 l3 -69 85 0 85 0 0 80 0 80 -83 3
c-63 2 -84 0 -88 -11z m131 -67 l0 -45 -45 0 c-44 0 -45 1 -48 33 -5 54 2 64
50 60 l43 -3 0 -45z"/>
<path d="M3674 1397 c-3 -8 -4 -45 -2 -83 l3 -69 80 0 80 0 0 80 0 80 -78 3
c-59 2 -79 0 -83 -11z m121 -67 l0 -45 -45 0 c-44 0 -45 1 -48 33 -5 54 2 64
50 60 l43 -3 0 -45z"/>
<path d="M3874 1397 c-3 -8 -4 -45 -2 -83 l3 -69 80 0 80 0 0 80 0 80 -78 3
c-59 2 -79 0 -83 -11z m121 -67 l0 -45 -40 0 c-38 0 -40 2 -43 33 -5 53 3 64
45 60 38 -3 38 -3 38 -48z"/>
<path d="M1747 2502 c-12 -13 -17 -37 -17 -75 0 -93 -41 -87 606 -87 l561 1
109 37 c70 25 109 43 109 52 0 9 -37 28 -100 51 l-100 37 -576 1 c-546 1 -577
0 -592 -17z m118 -72 l0 -45 -45 0 c-44 0 -45 1 -48 33 -5 54 2 64 50 60 l43
-3 0 -45z m63 -6 c-2 -22 -7 -39 -13 -39 -12 0 -19 60 -10 83 10 28 27 -3 23
-44z m905 41 c2 -10 -825 -20 -851 -10 -7 3 -10 9 -7 15 9 14 854 9 858 -5z
m137 -9 c48 -17 44 -36 -10 -52 -49 -15 -71 -12 -90 12 -10 12 -9 18 5 34 20
23 44 24 95 6z m-137 -61 c2 -10 -825 -20 -851 -10 -7 3 -10 9 -7 15 9 14 854
9 858 -5z"/>
<path d="M6834 2499 c-11 -19 9 -28 71 -31 l60 -3 0 -45 0 -45 -50 -3 c-68 -4
-85 -22 -85 -87 0 -72 18 -87 101 -83 49 2 64 7 64 18 0 11 -16 16 -60 20
l-60 5 0 40 0 40 46 5 c67 8 79 22 79 91 0 48 -4 60 -22 73 -26 18 -133 22
-144 5z"/>
<path d="M7063 2500 c-26 -10 -39 -62 -29 -115 8 -42 17 -48 81 -55 l50 -5 0
-40 0 -40 -65 -5 c-49 -4 -65 -9 -65 -20 0 -12 16 -16 70 -18 62 -3 72 0 87
19 22 27 24 97 3 126 -12 17 -27 23 -68 25 l-52 3 0 45 0 45 65 5 c49 4 65 9
65 20 0 11 -14 15 -60 17 -33 1 -70 -2 -82 -7z"/>
<path d="M4665 2378 c-2 -7 -6 -35 -7 -63 -2 -41 -7 -50 -23 -53 -37 -7 -45
-23 -46 -91 0 -36 -8 -122 -17 -191 l-17 -125 -45 -5 c-59 -7 -63 -33 -5 -40
48 -6 49 39 -5 -394 -35 -287 -39 -331 -26 -345 8 -9 16 -27 18 -41 4 -30 31
-34 36 -5 2 11 11 28 20 38 13 14 28 107 62 380 42 337 46 362 65 362 12 0 21
-9 25 -23 3 -13 10 -23 15 -23 6 0 12 10 15 23 4 14 13 23 25 23 18 0 23 -28
65 -369 32 -262 49 -371 58 -374 7 -2 18 -15 23 -29 11 -29 34 -26 34 5 0 12
8 27 17 34 16 12 15 34 -27 367 -24 195 -42 358 -39 363 3 4 18 8 33 8 29 0
57 21 44 33 -3 4 -24 7 -45 7 -22 0 -41 5 -43 13 -3 6 -15 97 -28 202 -22 185
-24 189 -47 195 -22 5 -26 12 -30 65 l-5 60 -48 3 c-32 2 -49 -1 -52 -10z m63
-79 c-2 -19 -7 -33 -13 -32 -12 3 -19 49 -10 71 10 26 27 -2 23 -39z m66 -91
c2 -7 9 -65 16 -128 6 -63 14 -139 17 -169 5 -43 3 -53 -8 -49 -10 3 -18 41
-29 129 l-15 124 -60 0 -60 0 -16 -122 c-8 -68 -18 -126 -22 -129 -18 -19 -19
18 -4 149 10 78 17 154 17 168 0 14 3 29 7 32 12 13 153 8 157 -5z m-55 -150
c7 -20 25 -175 22 -195 -3 -21 -26 -4 -31 22 -6 34 -23 40 -28 10 -5 -27 -23
-48 -33 -38 -8 9 13 192 25 211 12 19 36 14 45 -10z m146 -605 c23 -186 40
-342 38 -346 -3 -5 -10 -4 -15 1 -11 11 -98 682 -90 695 15 27 29 -47 67 -350z
m-275 327 c0 -39 -80 -661 -86 -672 -22 -35 -18 45 18 337 22 182 41 336 44
343 6 20 24 14 24 -8z"/>
<path d="M1884 2219 c-3 -6 2 -19 12 -29 11 -10 246 -177 524 -371 278 -193
564 -394 635 -444 178 -126 184 -130 196 -118 10 10 14 947 4 963 -9 15 -1362
13 -1371 -1z m326 -59 c7 -31 32 -33 40 -2 9 42 25 24 30 -35 4 -43 9 -58 20
-58 11 0 16 15 20 58 5 59 21 77 30 35 7 -30 34 -30 38 0 2 12 7 22 13 22 11
0 23 -46 15 -59 -9 -14 13 -66 24 -55 5 5 10 34 12 64 3 56 18 71 28 28 3 -13
12 -23 20 -23 8 0 17 10 20 23 9 42 25 24 30 -35 4 -43 9 -58 20 -58 11 0 16
15 20 58 5 59 21 77 30 35 3 -13 12 -23 20 -23 8 0 17 10 20 23 9 41 25 24 30
-33 3 -30 10 -55 15 -55 6 0 12 25 15 55 5 57 21 74 30 33 3 -13 12 -23 20
-23 8 0 17 10 20 23 9 42 25 24 30 -35 4 -43 9 -58 20 -58 11 0 16 15 20 58 5
59 21 77 30 35 3 -13 12 -23 20 -23 8 0 17 10 20 23 9 41 25 24 30 -33 3 -30
10 -55 15 -55 6 0 12 25 15 55 5 57 21 74 30 33 3 -13 12 -23 20 -23 8 0 17
10 20 23 9 42 25 24 30 -35 4 -43 9 -58 20 -58 11 0 16 15 20 58 5 59 21 77
30 35 7 -30 33 -30 40 0 3 13 10 23 15 23 12 -1 19 -851 7 -863 -8 -8 -1234
844 -1240 863 -3 6 37 9 109 7 111 -3 113 -3 119 -28z"/>
<path d="M2524 2019 c-10 -17 17 -38 280 -221 130 -91 234 -157 242 -154 12 5
14 39 12 193 l-3 188 -262 3 c-193 2 -264 -1 -269 -9z m494 -168 c1 -74 -1
-138 -5 -141 -10 -9 -394 261 -387 272 3 5 92 7 197 6 l192 -3 3 -134z"/>
<path d="M6670 1992 c-107 -53 -73 -202 47 -202 63 0 103 40 103 102 0 52 -21
85 -66 104 -42 18 -42 18 -84 -4z m91 -51 c16 -16 29 -36 29 -44 0 -21 -37
-65 -61 -72 -23 -8 -63 15 -79 46 -22 40 17 96 68 98 8 1 27 -12 43 -28z"/>
<path d="M5119 1333 c-69 -65 -72 -158 -8 -222 37 -37 64 -45 130 -39 78 8
129 67 129 150 0 87 -65 148 -158 148 -47 0 -57 -4 -93 -37z m169 -19 c37 -24
55 -77 42 -124 -27 -99 -156 -116 -210 -28 -25 42 -25 74 0 116 36 59 109 75
168 36z"/>
</g>
</svg>
