<?xml version="1.0" standalone="no"?>
<!DOCTYPE svg PUBLIC "-//W3C//DTD SVG 20010904//EN"
 "http://www.w3.org/TR/2001/REC-SVG-20010904/DTD/svg10.dtd">
<svg version="1.0" xmlns="http://www.w3.org/2000/svg"
 width="1130.000000pt" height="1116.000000pt" viewBox="0 0 1130.000000 1116.000000"
 preserveAspectRatio="xMidYMid meet">
<metadata>
Created by potrace 1.16, written by Peter Selinger 2001-2019
</metadata>
<g transform="translate(0.000000,1116.000000) scale(0.100000,-0.100000)"
fill="#000000" stroke="none">
<path d="M5370 10394 c-348 -50 -676 -165 -958 -337 -427 -261 -771 -660 -971
-1129 -144 -338 -198 -582 -208 -948 -18 -651 204 -1385 602 -1985 239 -361
557 -681 867 -874 129 -81 285 -163 369 -195 288 -108 828 -108 1131 0 161 58
426 219 608 369 543 449 964 1186 1114 1951 53 270 61 360 61 649 -1 320 -23
498 -96 753 -75 264 -221 547 -420 816 -356 479 -964 832 -1589 921 -95 13
-437 19 -510 9z"/>
<path d="M7400 5074 c-291 -293 -600 -501 -960 -644 -266 -106 -557 -151 -885
-136 -403 19 -590 64 -910 221 -268 131 -434 244 -703 479 l-143 125 -62 -24
c-77 -29 -316 -125 -507 -203 -476 -196 -861 -382 -1236 -597 -473 -272 -764
-508 -868 -705 -90 -170 -266 -780 -312 -1079 -20 -135 -14 -190 35 -316 122
-317 479 -600 1071 -850 523 -221 1339 -412 2129 -500 505 -56 790 -74 1291
-82 948 -14 1861 69 2725 247 340 70 892 233 1200 355 193 76 587 275 720 363
352 235 551 467 601 701 33 156 11 295 -101 661 -115 372 -193 569 -278 697
-91 137 -262 284 -490 423 -337 204 -1070 554 -1532 732 -184 70 -654 238
-669 238 -6 0 -59 -48 -116 -106z"/>
</g>
</svg>
